<?xml version="1.0" standalone="no"?>
<!DOCTYPE svg PUBLIC "-//W3C//DTD SVG 20010904//EN"
 "http://www.w3.org/TR/2001/REC-SVG-20010904/DTD/svg10.dtd">
<svg version="1.0" xmlns="http://www.w3.org/2000/svg"
 width="150.000000pt" height="99.000000pt" viewBox="0 0 150.000000 99.000000"
 preserveAspectRatio="xMidYMid meet">

<g transform="translate(0.000000,99.000000) scale(0.100000,-0.100000)"
fill="#000000" stroke="none">
<path d="M350 983 l145 -4 32 -31 33 -32 -37 -38 -37 -38 -141 0 -140 0 -95
-95 -95 -96 -6 68 c-3 37 -6 -60 -7 -217 l-2 -286 107 -107 108 -107 141 0
142 0 106 100 105 101 1 292 0 291 -102 103 -103 103 -150 -2 -150 -2 145 -3z
m285 -143 l60 -60 -5 -69 c-4 -55 -10 -75 -29 -95 -14 -14 -29 -26 -36 -26 -6
0 -37 27 -70 60 l-59 60 -140 0 -140 0 -63 -62 c-53 -53 -66 -61 -81 -52 -37
24 -24 56 61 142 l82 82 140 0 141 0 74 -76 c41 -41 84 -80 95 -86 11 -6 -22
32 -73 84 l-92 93 32 33 c18 17 35 32 38 32 2 0 32 -27 65 -60z m-76 -207 l62
-66 -32 -33 -32 -33 -36 29 c-35 28 -40 29 -156 32 l-120 3 60 58 c70 68 84
76 147 76 45 1 48 -1 107 -66z m-287 -10 c-33 -38 -74 -81 -91 -97 l-31 -30
-35 34 -35 34 62 63 62 63 64 0 64 0 -60 -67z m-202 -58 c0 -6 -13 -24 -30
-40 l-30 -29 0 69 0 69 30 -29 c17 -16 30 -34 30 -40z m620 -2 l0 -57 -30 29
-30 29 27 28 c15 15 28 28 30 28 2 0 3 -26 3 -57z m-37 -95 l-27 -28 -23 22
c-29 27 -29 36 -1 65 l22 23 28 -27 28 -27 -27 -28z m-529 43 l27 -28 -26 -32
c-15 -17 -32 -31 -38 -31 -6 0 5 17 24 37 30 33 30 35 3 10 -29 -26 -31 -26
-46 -10 -17 20 -20 52 -5 71 15 19 31 15 61 -17z m388 12 c22 -20 23 -31 1
-55 -14 -16 -33 -18 -158 -18 -148 0 -165 5 -165 45 0 40 17 45 164 45 116 0
143 -3 158 -17z m-442 -98 c0 -6 -13 -24 -30 -40 l-30 -29 0 69 0 69 30 -29
c17 -16 30 -34 30 -40z m488 -62 l-62 -63 -146 0 -146 0 -48 49 -49 50 27 35
c31 42 37 43 61 16 16 -18 31 -20 156 -20 l139 0 32 29 33 30 33 -32 32 -31
-62 -63z m132 60 l0 -57 -30 29 -30 29 27 28 c15 15 28 28 30 28 2 0 3 -26 3
-57z m-535 -83 l59 -60 141 0 141 0 59 60 c33 33 65 60 71 60 7 0 24 -14 38
-31 22 -26 26 -40 26 -99 0 -65 -2 -69 -34 -98 -34 -30 -36 -30 -79 -17 -34
10 -48 11 -58 2 -29 -26 29 42 95 111 39 39 66 72 61 72 -6 0 -48 -38 -95 -85
l-85 -85 -140 0 -140 0 -86 86 c-86 86 -92 98 -66 132 17 21 31 14 92 -48z
m-60 -80 c56 -57 57 -59 22 -43 -20 9 -35 21 -34 27 1 6 -11 12 -28 14 -40 5
-49 15 -33 41 7 11 13 21 13 21 0 0 27 -27 60 -60z"/>
<path d="M816 677 c3 -10 9 -15 12 -12 3 3 0 11 -7 18 -10 9 -11 8 -5 -6z"/>
<path d="M856 659 c-9 -46 -7 -79 4 -79 6 0 10 12 11 28 0 15 3 39 5 55 6 38
-12 34 -20 -4z"/>
<path d="M900 644 c-14 -35 -12 -47 3 -33 10 10 18 59 9 59 -1 0 -7 -12 -12
-26z"/>
<path d="M760 631 c0 -11 4 -22 9 -25 4 -3 6 6 3 19 -5 30 -12 33 -12 6z"/>
<path d="M753 553 c9 -2 25 -2 35 0 9 3 1 5 -18 5 -19 0 -27 -2 -17 -5z"/>
<path d="M865 550 c3 -5 0 -7 -9 -4 -10 4 -17 -2 -22 -20 -8 -33 2 -72 20 -79
11 -4 13 3 12 31 -2 25 4 44 17 60 l20 22 -22 0 c-12 0 -19 -4 -16 -10z"/>
<path d="M760 521 c0 -10 19 -25 25 -20 1 2 -3 10 -11 17 -8 7 -14 8 -14 3z"/>
<path d="M760 471 c0 -11 -6 -22 -12 -24 -8 -4 -7 -6 3 -6 10 -1 19 9 21 24 3
14 1 25 -3 25 -5 0 -9 -9 -9 -19z"/>
<path d="M1031 454 c0 -11 3 -14 6 -6 3 7 2 16 -1 19 -3 4 -6 -2 -5 -13z"/>
<path d="M810 450 c-13 -8 -12 -10 3 -10 9 0 17 5 17 10 0 12 -1 12 -20 0z"/>
<path d="M1078 443 c7 -3 16 -2 19 1 4 3 -2 6 -13 5 -11 0 -14 -3 -6 -6z"/>
<path d="M782 410 c-38 -9 -54 -20 -29 -20 13 0 17 -10 17 -45 0 -33 4 -45 15
-45 11 0 15 12 15 45 0 33 4 45 15 45 8 0 15 7 15 15 0 16 0 16 -48 5z"/>
<path d="M1220 369 c0 -26 -4 -51 -10 -54 -5 -3 -10 1 -10 9 0 9 -4 16 -9 16
-6 0 -6 12 1 31 13 39 2 50 -19 19 l-17 -24 -8 24 c-7 23 -7 23 -6 -5 2 -62
-6 -78 -12 -25 l-7 55 -1 -57 c-2 -46 1 -58 13 -58 10 0 15 10 15 26 0 22 2
25 15 14 8 -7 15 -19 15 -26 0 -11 19 -14 80 -14 l80 0 -6 25 c-4 15 -2 25 5
25 6 0 13 -11 17 -25 4 -16 13 -25 25 -25 16 0 19 8 19 45 0 38 3 45 20 45 17
0 20 -7 20 -45 0 -33 4 -45 15 -45 11 0 15 12 15 45 0 33 4 45 15 45 8 0 15 8
14 18 0 9 -3 12 -5 5 -4 -9 -13 -9 -31 -2 -41 15 -93 8 -93 -13 0 -24 -8 -23
-29 4 -23 28 -42 16 -34 -22 8 -43 -1 -58 -31 -53 -31 6 -35 23 -6 23 11 0 20
5 20 10 0 6 -9 10 -20 10 -11 0 -20 5 -20 10 0 6 9 10 20 10 34 0 22 18 -15
22 l-35 4 0 -47z m-37 1 c-3 -11 -9 -20 -15 -20 -5 0 -4 9 2 20 6 11 12 20 14
20 2 0 2 -9 -1 -20z"/>
<path d="M820 315 c0 -8 4 -15 10 -15 5 0 7 7 4 15 -4 8 -8 15 -10 15 -2 0 -4
-7 -4 -15z"/>
</g>
</svg>
