<?xml version="1.0" standalone="no"?>
<!DOCTYPE svg PUBLIC "-//W3C//DTD SVG 20010904//EN"
 "http://www.w3.org/TR/2001/REC-SVG-20010904/DTD/svg10.dtd">
<svg version="1.0" xmlns="http://www.w3.org/2000/svg"
 width="320.000000pt" height="81.000000pt" viewBox="0 0 320.000000 81.000000"
 preserveAspectRatio="xMidYMid meet">

<g transform="translate(0.000000,81.000000) scale(0.100000,-0.100000)"
fill="#000000" stroke="none">
<path d="M757 702 c-38 -42 -4 -89 42 -60 27 17 36 45 21 63 -17 20 -44 19
-63 -3z"/>
<path d="M66 703 c-37 -4 -38 -5 -17 -19 19 -14 21 -24 21 -124 0 -117 -4
-140 -26 -140 -8 0 -14 -5 -14 -11 0 -19 191 -7 223 14 50 33 44 105 -11 133
l-23 11 26 17 c17 11 25 26 25 44 0 42 -21 63 -71 73 -45 8 -65 9 -133 2z
m124 -33 c11 -11 20 -29 20 -40 0 -26 -34 -60 -60 -60 -18 0 -20 7 -20 60 0
53 2 60 20 60 11 0 29 -9 40 -20z m12 -137 c41 -37 9 -119 -44 -111 -21 3 -23
9 -26 66 -3 62 -3 62 24 62 15 0 36 -7 46 -17z"/>
<path d="M360 699 c0 -4 7 -9 15 -13 12 -4 15 -25 15 -101 0 -104 15 -156 48
-174 12 -6 45 -11 76 -11 44 0 61 5 83 24 27 23 28 29 34 136 4 89 9 115 22
125 9 7 17 14 17 16 0 2 -25 4 -55 5 -30 0 -55 -4 -55 -8 0 -4 7 -8 15 -8 24
0 35 -35 35 -115 0 -125 -36 -174 -109 -149 -35 12 -50 59 -50 156 -1 85 4
108 25 108 8 0 14 3 14 8 0 4 -29 7 -65 7 -36 0 -65 -3 -65 -6z"/>
<path d="M900 699 c0 -4 9 -9 20 -12 20 -5 20 -12 18 -134 l-3 -128 -45 -11
c-25 -6 -46 -7 -48 -3 -2 5 -10 9 -18 9 -11 0 -14 19 -14 90 l0 89 -32 -14
-33 -13 4 -76 c2 -50 -1 -76 -8 -76 -6 0 -11 -4 -11 -10 0 -5 23 -10 52 -10
l52 0 -23 -21 c-24 -23 -21 -40 4 -19 9 7 18 10 21 7 5 -5 -18 -84 -44 -154
-2 -8 5 -13 22 -13 22 0 31 10 60 68 33 64 80 121 91 110 3 -3 -8 -40 -25 -82
-16 -42 -30 -81 -30 -86 0 -17 51 -11 86 11 19 11 34 28 34 36 0 14 -3 14 -20
-2 -30 -27 -33 -14 -10 41 12 26 22 61 23 76 2 27 4 28 58 28 60 0 68 8 69 64
0 15 -5 12 -29 -13 -21 -23 -38 -31 -63 -31 -54 0 -58 11 -58 143 0 110 1 119
20 124 40 10 19 18 -50 18 -38 0 -70 -3 -70 -6z m18 -333 c-18 -19 -34 -33
-35 -32 -2 1 3 17 9 34 9 23 19 32 35 32 23 0 22 -1 -9 -34z"/>
<path d="M1250 701 c-32 -4 -40 -8 -27 -13 15 -7 17 -23 17 -136 l0 -130 -43
-11 c-24 -6 -56 -20 -71 -32 -31 -24 -29 -37 3 -18 32 21 34 6 6 -66 -31 -83
-31 -95 -2 -95 17 0 30 15 60 74 64 125 110 145 64 28 -15 -37 -27 -75 -27
-85 0 -27 53 -22 89 9 35 30 42 53 9 30 -36 -26 -38 -19 -12 44 13 33 24 68
24 79 0 15 10 20 48 26 63 9 100 32 123 77 38 74 14 166 -52 199 -39 20 -142
30 -209 20z m145 -27 c104 -49 75 -254 -35 -254 -45 0 -50 15 -50 140 0 64 3
120 7 123 11 12 43 8 78 -9z m-161 -306 c-16 -18 -33 -37 -37 -43 -5 -6 -6 -4
-3 5 23 65 27 70 48 70 21 0 21 -1 -8 -32z"/>
<path d="M1610 699 c0 -4 7 -9 15 -13 12 -4 15 -29 15 -135 0 -125 -1 -129
-22 -136 -13 -4 -40 -7 -60 -5 -21 1 -50 -6 -67 -16 -37 -22 -71 -82 -71 -126
0 -94 136 -92 185 2 18 35 20 101 3 118 -9 9 4 12 60 12 41 0 72 4 72 10 0 6
-7 10 -15 10 -13 0 -15 21 -15 130 0 107 3 132 15 136 31 12 13 19 -50 19 -36
0 -65 -3 -65 -6z m-46 -348 c-3 -48 -45 -126 -69 -126 -17 0 -20 6 -17 33 4
55 53 137 76 129 6 -2 10 -18 10 -36z"/>
<path d="M1810 700 c0 -3 9 -11 20 -18 18 -11 20 -23 20 -125 0 -61 -4 -117
-8 -124 -4 -7 -27 -16 -51 -22 -23 -5 -54 -19 -67 -32 -29 -27 -33 -50 -4 -24
31 28 35 11 10 -54 -26 -69 -21 -101 16 -101 70 0 153 90 167 182 4 29 2 37
-12 41 -11 2 -21 18 -24 37 -10 47 -8 170 2 170 4 0 45 -47 90 -105 46 -58 88
-111 95 -118 10 -9 5 -17 -24 -38 -42 -31 -95 -126 -84 -152 11 -29 57 -20
102 19 41 35 42 35 32 9 -13 -33 -6 -45 25 -45 23 0 90 48 81 58 -3 3 -12 -1
-20 -8 -32 -26 -34 -2 -5 70 16 41 27 81 24 88 -5 14 -45 16 -45 2 0 -5 -14
-10 -31 -10 l-31 0 4 136 c2 115 6 138 21 148 9 7 17 15 17 17 0 2 -25 4 -55
5 -30 0 -55 -4 -55 -8 0 -4 7 -8 15 -8 24 0 35 -35 35 -112 l-1 -73 -50 55
c-27 30 -63 75 -81 100 -30 43 -33 45 -80 45 -26 0 -48 -2 -48 -5z m48 -332
c4 -45 -15 -95 -45 -118 -39 -30 -47 -11 -23 53 12 31 22 65 23 77 1 13 8 20
22 20 16 0 21 -7 23 -32z m267 2 c8 -13 -35 -87 -69 -119 -21 -20 -26 -22 -31
-8 -7 16 26 89 53 120 17 19 38 22 47 7z"/>
<path d="M2280 688 c-55 -29 -84 -75 -84 -138 0 -58 27 -106 74 -131 19 -11
29 -19 22 -19 -6 0 -12 -4 -12 -10 0 -5 9 -10 19 -10 19 0 19 -2 -5 -72 -13
-39 -24 -80 -24 -90 0 -29 50 -23 93 13 43 35 43 53 0 19 -15 -12 -29 -17 -30
-13 -2 5 7 38 21 74 20 53 28 65 49 67 14 2 31 10 37 18 7 8 19 14 26 14 10 0
14 14 14 50 0 28 5 50 10 50 6 0 10 3 10 8 0 4 -29 7 -65 8 -36 0 -65 -3 -65
-8 0 -4 9 -8 20 -8 17 0 20 -7 20 -45 0 -26 -5 -45 -11 -45 -6 0 -9 7 -6 15
10 25 -13 28 -38 5 l-24 -22 -25 25 c-47 47 -55 130 -20 199 17 33 43 48 84
48 41 0 66 -14 84 -48 l15 -27 1 41 c0 35 -4 43 -22 48 -50 13 -124 6 -168
-16z"/>
<path d="M2566 525 c-27 -27 -12 -59 25 -53 19 2 24 9 24 33 0 35 -24 45 -49
20z"/>
<path d="M655 469 c-16 -28 -42 -66 -57 -86 -29 -38 -34 -63 -19 -92 7 -13 -2
-47 -36 -129 -25 -62 -42 -119 -39 -127 11 -30 35 -13 83 58 31 46 67 84 98
105 91 61 58 69 -39 10 -26 -16 -50 -28 -52 -26 -1 2 10 30 26 63 105 219 117
256 84 269 -9 3 -16 6 -17 6 -1 0 -15 -23 -32 -51z"/>
<path d="M2507 384 c-39 -26 -45 -44 -9 -25 12 6 23 11 26 11 3 0 -8 -31 -24
-69 -37 -87 -38 -101 -4 -101 28 0 94 36 94 51 0 13 -14 11 -28 -3 -23 -23
-23 1 2 63 15 34 26 71 26 81 0 26 -38 23 -83 -8z"/>
<path d="M2710 372 c-46 -45 -61 -102 -39 -141 12 -21 23 -27 61 -29 40 -3 51
1 82 28 80 71 64 180 -27 180 -32 0 -46 -7 -77 -38z m100 -10 c0 -38 -51 -136
-72 -140 -35 -7 -20 75 25 141 24 36 47 35 47 -1z"/>
<path d="M2980 393 c-28 -19 -41 -35 -35 -42 3 -2 11 2 20 9 9 7 18 10 21 7 5
-5 -18 -84 -44 -154 -2 -8 5 -13 22 -13 22 0 31 10 60 68 33 64 80 121 91 110
3 -3 -8 -40 -25 -82 -16 -42 -30 -81 -30 -86 0 -17 51 -11 86 11 19 11 34 28
34 36 0 14 -2 14 -18 0 -24 -22 -36 -22 -27 1 28 68 44 123 39 136 -13 33 -76
11 -124 -44 -18 -21 -20 -22 -15 -5 19 53 18 65 -7 65 -13 0 -35 -8 -48 -17z"/>
</g>
</svg>
