<?xml version="1.0" standalone="no"?>
<!DOCTYPE svg PUBLIC "-//W3C//DTD SVG 20010904//EN"
 "http://www.w3.org/TR/2001/REC-SVG-20010904/DTD/svg10.dtd">
<svg version="1.0" xmlns="http://www.w3.org/2000/svg"
 width="280.000000pt" height="60.000000pt" viewBox="0 0 280.000000 60.000000"
 preserveAspectRatio="xMidYMid meet">

<g transform="translate(0.000000,60.000000) scale(0.100000,-0.100000)"
fill="#000000" stroke="none">
<path d="M1400 539 l0 -60 -22 15 c-32 23 -90 20 -123 -6 -71 -55 -72 -186 -2
-228 42 -26 101 -26 127 0 20 20 21 20 24 -2 1 -8 18 -13 44 -14 l42 -1 0 178
0 179 -45 0 -45 0 0 -61z m-22 -115 c42 -29 19 -114 -31 -114 -64 0 -78 101
-17 123 23 8 24 8 48 -9z m62 -58 c0 -2 -7 -7 -16 -10 -8 -3 -12 -2 -9 4 6 10
25 14 25 6z"/>
<path d="M20 582 c0 -4 25 -82 56 -174 l56 -168 44 0 c24 0 44 4 44 9 0 6 14
49 31 97 37 100 37 99 80 -33 l23 -73 42 0 42 0 56 168 c31 92 56 170 56 173
0 4 -21 5 -47 4 l-47 -3 -27 -92 c-15 -50 -30 -94 -32 -96 -2 -3 -20 39 -38
93 l-34 98 -39 0 -39 0 -29 -85 c-15 -47 -31 -92 -34 -100 -4 -9 -20 27 -38
85 l-32 100 -47 2 c-26 1 -47 -1 -47 -5z"/>
<path d="M2656 569 c-14 -11 -26 -26 -25 -32 0 -8 3 -7 6 1 3 8 19 22 37 33
17 10 26 19 20 19 -6 0 -23 -9 -38 -21z"/>
<path d="M2729 579 c14 -5 30 -13 36 -17 6 -4 2 1 -8 11 -11 9 -27 17 -36 16
-10 0 -7 -4 8 -10z"/>
<path d="M2670 511 c0 -43 14 -61 28 -36 8 15 10 15 21 1 21 -25 28 -19 27 27
-1 41 -2 42 -38 45 l-38 3 0 -40z m55 9 c3 -5 -1 -10 -9 -10 -9 0 -16 5 -16
10 0 6 4 10 9 10 6 0 13 -4 16 -10z"/>
<path d="M2621 504 c0 -11 3 -14 6 -6 3 7 2 16 -1 19 -3 4 -6 -2 -5 -13z"/>
<path d="M609 486 c-45 -31 -63 -73 -56 -132 8 -72 62 -116 143 -116 148 0
198 193 66 256 -49 24 -111 20 -153 -8z m129 -74 c21 -27 15 -70 -13 -88 -31
-20 -53 -16 -77 17 -45 60 42 129 90 71z"/>
<path d="M954 496 c-96 -42 -107 -174 -20 -234 47 -32 124 -32 171 0 34 23 62
78 50 98 -3 5 -1 10 5 10 15 0 5 45 -16 78 -36 56 -122 77 -190 48z m100 -77
c15 -12 26 -30 26 -45 0 -29 -33 -64 -60 -64 -41 0 -75 62 -52 96 7 11 42 33
53 34 4 0 18 -9 33 -21z"/>
<path d="M1550 375 l0 -135 45 0 45 0 0 83 c0 85 8 107 42 107 27 0 38 -32 38
-115 l0 -76 43 3 42 3 3 80 c3 83 12 105 43 105 28 0 39 -32 39 -114 l0 -76
45 0 45 0 0 100 c0 105 -13 151 -45 164 -40 15 -109 1 -126 -27 -4 -6 -16 -1
-30 12 -27 25 -90 29 -109 6 -7 -8 -16 -15 -21 -15 -5 0 -9 7 -9 15 0 11 -12
15 -45 15 l-45 0 0 -135z"/>
<path d="M2070 499 c-32 -13 -32 -13 -21 -41 9 -23 13 -25 62 -20 43 4 55 2
66 -13 21 -30 16 -34 -35 -28 -62 7 -108 -15 -117 -56 -8 -38 3 -79 25 -91 25
-13 28 -13 33 8 4 16 5 16 6 0 1 -21 41 -24 74 -7 16 9 22 9 25 0 2 -6 23 -11
46 -11 l42 0 2 83 c2 106 -7 137 -48 165 -36 24 -113 29 -160 11z m115 -149
c11 -18 -6 -50 -28 -55 -12 -3 -35 -1 -52 4 -16 5 -22 10 -12 10 10 1 17 9 17
20 0 28 60 44 75 21z"/>
<path d="M2332 378 l3 -133 42 -3 42 -3 3 87 c2 70 6 89 21 98 12 8 22 8 35 0
13 -9 18 -30 22 -95 l5 -84 43 -3 42 -4 0 112 c0 104 -1 112 -25 135 -28 29
-80 33 -111 10 -25 -19 -34 -19 -34 0 0 11 -12 15 -45 15 l-46 0 3 -132z"/>
<path d="M2630 473 c0 -5 10 -18 23 -29 l22 -19 -20 25 c-11 14 -21 27 -22 29
-2 2 -3 0 -3 -6z"/>
<path d="M2745 439 c-16 -10 -25 -19 -19 -19 7 0 22 9 35 20 30 24 23 24 -16
-1z"/>
<path d="M695 130 c-79 -42 -119 -50 -128 -26 -6 16 11 41 33 49 10 4 8 6 -6
6 -27 1 -54 -29 -54 -61 0 -35 43 -75 90 -83 47 -8 142 9 192 34 37 18 39 18
76 0 50 -25 139 -41 184 -34 74 13 115 73 83 121 -9 14 -25 24 -38 23 l-22 0
23 -10 c17 -6 22 -15 20 -31 -5 -35 -40 -33 -110 5 -81 45 -121 54 -153 33
-21 -14 -27 -14 -52 -1 -41 22 -54 19 -138 -25z"/>
</g>
</svg>
